<svg width="32" height="34" viewBox="0 0 32 34" fill="none" xmlns="http://www.w3.org/2000/svg">
<path fill-rule="evenodd" clip-rule="evenodd" d="M4.25 18.4167C6.5972 18.4167 8.5 20.3194 8.5 22.6667V29.75C8.5 32.0973 6.5972 34 4.25 34C1.9028 34 0 32.0973 0 29.75V22.6667C0 20.3194 1.9028 18.4167 4.25 18.4167ZM15.5833 0C17.9306 0 19.8333 1.9028 19.8333 4.25V29.75C19.8333 32.0973 17.9306 34 15.5833 34C13.2361 34 11.3333 32.0973 11.3333 29.75V4.25C11.3333 1.9028 13.2361 0 15.5833 0ZM26.9167 9.91667C29.2639 9.91667 31.1667 11.8195 31.1667 14.1667V29.75C31.1667 32.0973 29.2639 34 26.9167 34C24.5694 34 22.6667 32.0973 22.6667 29.75V14.1667C22.6667 11.8195 24.5694 9.91667 26.9167 9.91667Z" fill="white"/>
</svg>
