<svg width="28" height="34" viewBox="0 0 28 34" fill="none" xmlns="http://www.w3.org/2000/svg">
<path d="M7.35506 11.2705C7.72926 15.1445 10.2349 17.7031 13.7879 17.7031C17.3408 17.7031 19.8461 15.1445 20.2205 11.2705L20.7509 7.08502C21.08 2.97288 17.7244 0 13.7879 0C9.85127 0 6.4957 2.97288 6.82454 7.08502L7.35506 11.2705Z" fill="white"/>
<path d="M27.548 28.0612L27.2941 26.4442C27.0814 25.0884 26.2293 23.918 25.0047 23.2992L19.6608 20.5969C19.4935 20.5123 19.3573 20.3848 19.2432 20.2424C17.6961 21.8782 15.8166 22.8402 13.7879 22.8402C11.7593 22.8402 9.87951 21.8782 8.33251 20.2424C8.21836 20.3848 8.08216 20.5123 7.91488 20.5969L2.57104 23.2992C1.34637 23.918 0.494382 25.0884 0.281682 26.4442L0.027612 28.0612C-0.0628997 28.6384 0.0565651 29.4855 0.573604 29.909C1.26489 30.4743 3.81855 34 13.7879 34C23.7572 34 26.3107 30.4743 27.002 29.909C27.5192 29.4855 27.6385 28.6384 27.548 28.0612Z" fill="white"/>
</svg>
