<svg width="34" height="34" viewBox="0 0 34 34" fill="none" xmlns="http://www.w3.org/2000/svg">
<path d="M7.65002 27.2V27.0478C7.64985 25.5763 7.64968 24.227 7.79724 23.1295C7.95974 21.9208 8.34205 20.6434 9.39274 19.5927C10.4434 18.5421 11.7209 18.1597 12.9295 17.9972C14.027 17.8497 15.3763 17.8498 16.8478 17.85H17.1521C18.6237 17.8498 19.973 17.8497 21.0705 17.9972C22.2792 18.1597 23.5566 18.5421 24.6073 19.5927C25.6579 20.6434 26.0403 21.9208 26.2028 23.1295C26.3481 24.2109 26.3502 25.5365 26.35 26.9827C30.7234 26.0476 34 22.2018 34 17.5999C34 13.3979 31.2681 9.82641 27.4637 8.52547C26.9231 3.72931 22.807 0 17.8095 0C12.4445 0 8.09523 4.29806 8.09523 9.6C8.09523 10.7727 8.308 11.8963 8.69747 12.9351C8.24075 12.8464 7.76871 12.8 7.28571 12.8C3.26193 12.8 0 16.0235 0 20C0 23.9765 3.26193 27.2 7.28571 27.2H7.65002Z" fill="white"/>
<path fill-rule="evenodd" clip-rule="evenodd" d="M17 20.4C13.7944 20.4 12.1916 20.4 11.1958 21.3959C10.2 22.3917 10.2 23.9945 10.2 27.2C10.2 30.4055 10.2 32.0083 11.1958 33.0042C12.1916 34 13.7944 34 17 34C20.2055 34 21.8082 34 22.8041 33.0042C23.8 32.0083 23.8 30.4055 23.8 27.2C23.8 23.9945 23.8 22.3917 22.8041 21.3959C21.8082 20.4 20.2055 20.4 17 20.4ZM20.0679 25.6432L17.8013 23.3764C17.3588 22.9339 16.6411 22.9339 16.1986 23.3764L13.932 25.6432C13.4893 26.0857 13.4893 26.8032 13.932 27.2459C14.3745 27.6884 15.092 27.6884 15.5347 27.2459L15.8666 26.9139V30.2223C15.8666 30.8482 16.374 31.3555 17 31.3555C17.6259 31.3555 18.1333 30.8482 18.1333 30.2223V26.9139L18.4652 27.2459C18.9079 27.6884 19.6254 27.6884 20.0679 27.2459C20.5106 26.8032 20.5106 26.0857 20.0679 25.6432Z" fill="white"/>
</svg>
