<svg width="34" height="34" viewBox="0 0 34 34" fill="none" xmlns="http://www.w3.org/2000/svg">
<path d="M33.4687 24.9058L28.3398 12.9111C27.4058 10.7153 26.013 9.46999 24.4235 9.38806C22.8504 9.30613 21.3265 10.404 20.1631 12.5014L17.0497 18.0892C16.3943 19.269 15.4603 19.9736 14.4443 20.0555C13.412 20.1538 12.3796 19.6131 11.5439 18.548L11.1834 18.0892C10.02 16.6308 8.57804 15.9262 7.10328 16.0737C5.62852 16.2211 4.36679 17.2371 3.53109 18.8921L0.696286 24.5453C-0.319657 26.5936 -0.22134 28.9696 0.974851 30.9032C2.17104 32.8367 4.25209 34.0001 6.52976 34.0001H27.4386C29.6343 34.0001 31.6826 32.9023 32.8952 31.067C34.1405 29.2318 34.3371 26.9213 33.4687 24.9058Z" fill="white"/>
<path d="M8.80928 11.0771C11.8681 11.0771 14.3477 8.59738 14.3477 5.53853C14.3477 2.47969 11.8681 0 8.80928 0C5.75044 0 3.27075 2.47969 3.27075 5.53853C3.27075 8.59738 5.75044 11.0771 8.80928 11.0771Z" fill="white"/>
</svg>
