<svg width="34" height="34" viewBox="0 0 34 34" fill="none" xmlns="http://www.w3.org/2000/svg">
<path fill-rule="evenodd" clip-rule="evenodd" d="M14.3215 31.875C14.3215 30.7014 15.276 29.75 16.4533 29.75H31.8682C33.0455 29.75 34 30.7014 34 31.875C34 33.0486 33.0455 34 31.8682 34H16.4533C15.276 34 14.3215 33.0486 14.3215 31.875ZM14.3215 24.0833C14.3215 22.9098 15.276 21.9583 16.4533 21.9583H31.8682C33.0455 21.9583 34 22.9098 34 24.0833C34 25.2569 33.0455 26.2083 31.8682 26.2083H16.4533C15.276 26.2083 14.3215 25.2569 14.3215 24.0833ZM14.3215 16.2917C14.3215 15.1181 15.276 14.1667 16.4533 14.1667H31.8682C33.0455 14.1667 34 15.1181 34 16.2917C34 17.4652 33.0455 18.4167 31.8682 18.4167H16.4533C15.276 18.4167 14.3215 17.4652 14.3215 16.2917ZM25.582 9.91667H14.2122C11.8575 9.91667 9.94854 11.8195 9.94854 14.1667V25.5H4.26366C1.90891 25.5 0 23.5973 0 21.25V4.25C0 1.9028 1.90891 0 4.26366 0H21.3183C23.6731 0 25.582 1.9028 25.582 4.25V9.91667Z" fill="white"/>
</svg>
