<svg width="32" height="32" viewBox="0 0 32 32" fill="none" xmlns="http://www.w3.org/2000/svg">
<path d="M6.7966 22.4034C8.343 22.4034 9.5966 23.657 9.5966 25.2034V29.2C9.5966 30.7464 8.343 32 6.7966 32H2.8C1.2536 32 0 30.7464 0 29.2V25.2034C0 23.657 1.2536 22.4034 2.8 22.4034H6.7966ZM12.397 25.6H30.8046C31.4674 25.6 32.0046 26.1373 32.0046 26.8C32.0046 27.4075 31.5532 27.9096 30.9675 27.989L30.8046 28H12.397C11.7342 28 11.197 27.4627 11.197 26.8C11.197 26.1925 11.6484 25.6904 12.2341 25.611L12.397 25.6ZM6.7966 11.2017C8.343 11.2017 9.5966 12.4553 9.5966 14.0017V17.9983C9.5966 19.5447 8.343 20.7983 6.7966 20.7983H2.8C1.2536 20.7983 0 19.5447 0 17.9983V14.0017C0 12.4553 1.2536 11.2017 2.8 11.2017H6.7966ZM12.397 14.4H30.8046C31.4674 14.4 32.0046 14.9373 32.0046 15.6C32.0046 16.2075 31.5532 16.7096 30.9675 16.789L30.8046 16.8H12.397C11.7342 16.8 11.197 16.2627 11.197 15.6C11.197 14.9925 11.6484 14.4904 12.2341 14.411L12.397 14.4ZM6.7966 0C8.343 0 9.5966 1.2536 9.5966 2.8V6.7966C9.5966 8.343 8.343 9.5966 6.7966 9.5966H2.8C1.2536 9.5966 0 8.343 0 6.7966V2.8C0 1.2536 1.2536 0 2.8 0H6.7966ZM12.397 3.2H30.8046C31.4674 3.2 32.0046 3.73726 32.0046 4.4C32.0046 5.00751 31.5532 5.50959 30.9675 5.58905L30.8046 5.6H12.397C11.7342 5.6 11.197 5.06274 11.197 4.4C11.197 3.79249 11.6484 3.29041 12.2341 3.21095L12.397 3.2Z" fill="white"/>
</svg>
