<svg width="34" height="34" viewBox="0 0 34 34" fill="none" xmlns="http://www.w3.org/2000/svg">
<path opacity="0.5" d="M15.9533 33.5019C24.764 33.5019 31.9066 26.3594 31.9066 17.5486C31.9066 8.73786 24.764 1.59534 15.9533 1.59534C7.14253 1.59534 0 8.73786 0 17.5486C0 26.3594 7.14253 33.5019 15.9533 33.5019Z" fill="white"/>
<path d="M19.0259 21.2207C19.4168 20.9158 19.7713 20.5613 20.4802 19.8524L29.3188 11.0137C29.5326 10.8 29.4348 10.4319 29.1492 10.3329C28.1061 9.97092 26.7488 9.29135 25.4794 8.02181C24.2098 6.75228 23.5302 5.39512 23.1682 4.3518C23.0691 4.0663 22.7011 3.96849 22.4875 4.18219L13.6487 13.0209C12.9398 13.7299 12.5852 14.0844 12.2804 14.4753C11.9207 14.9364 11.6124 15.4352 11.3608 15.9631C11.1476 16.4106 10.9891 16.8862 10.672 17.8373L10.2623 19.0665L9.61083 21.0208L8.99998 22.8533C8.84396 23.3214 8.96579 23.8375 9.31469 24.1864C9.66359 24.5353 10.1797 24.6572 10.6478 24.5011L12.4803 23.8903L14.4346 23.2388L15.6638 22.8291C16.6149 22.5121 17.0905 22.3535 17.538 22.1402C18.0659 21.8886 18.5647 21.5804 19.0259 21.2207Z" fill="white"/>
<path d="M32.0863 8.24633C33.9728 6.35987 33.9728 3.30131 32.0863 1.41485C30.1999 -0.471616 27.1413 -0.471616 25.255 1.41485L24.9707 1.69901C24.6966 1.97321 24.5724 2.35622 24.6408 2.7379C24.6839 2.978 24.7638 3.32903 24.9091 3.7479C25.1998 4.58559 25.7486 5.68524 26.7824 6.71896C27.816 7.75267 28.9156 8.30151 29.7533 8.59213C30.1723 8.73745 30.5232 8.81733 30.7633 8.86043C31.1451 8.92894 31.528 8.80469 31.8022 8.53049L32.0863 8.24633Z" fill="white"/>
</svg>
