<svg width="34" height="34" viewBox="0 0 34 34" fill="none" xmlns="http://www.w3.org/2000/svg">
<path d="M33.5405 7.81081V32.1622C33.5405 33.1766 32.7181 34 31.7027 34H7.35135C6.33687 34 5.51351 33.1766 5.51351 32.1622V7.81081C5.51351 6.79632 6.33687 5.97297 7.35135 5.97297H31.7027C32.7181 5.97297 33.5405 6.79632 33.5405 7.81081ZM28.027 1.83784C28.027 0.823351 27.2046 0 26.1892 0H1.83784C0.823351 0 0 0.823351 0 1.83784V26.1892C0 27.2037 0.823351 28.027 1.83784 28.027C2.85324 28.027 3.67568 27.2037 3.67568 26.1892V3.67568H26.1892C27.2046 3.67568 28.027 2.85232 28.027 1.83784Z" fill="white"/>
</svg>
