<svg width="32" height="32" viewBox="0 0 32 32" fill="none" xmlns="http://www.w3.org/2000/svg">
<path opacity="0.5" fill-rule="evenodd" clip-rule="evenodd" d="M12.8 32H19.2C25.2339 32 28.251 32 30.1254 30.1254C32 28.251 32 25.2339 32 19.2V18.5006C32 17.1042 32 16.055 31.9318 15.2002H25.6H25.4482C23.6928 15.2003 22.1416 15.2005 20.891 15.0323C19.5357 14.8501 18.1805 14.4317 17.0746 13.3256C15.9685 12.2196 15.5501 10.8644 15.3678 9.50906C15.1997 8.25862 15.1998 6.70731 15.2 4.95195L15.2147 0.416912C15.2152 0.285008 15.2266 0.154544 15.248 0.026656C14.5942 -3.8743e-08 13.8173 0 12.8477 0C6.7819 0 3.74904 1.90735e-07 1.87451 1.87451C1.90735e-07 3.74904 0 6.76602 0 12.8V19.2C0 25.2339 1.90735e-07 28.251 1.87451 30.1254C3.74904 32 6.76602 32 12.8 32Z" fill="white"/>
<path d="M13.9236 19.6216C14.1564 19.0011 13.842 18.3094 13.2213 18.0768C12.6008 17.844 11.9091 18.1584 11.6764 18.779L9.27644 25.179C9.04373 25.7995 9.35815 26.4912 9.97869 26.7238C10.5992 26.9566 11.2909 26.6422 11.5236 26.0216L13.9236 19.6216Z" fill="white"/>
<path d="M8.84848 20.0487C9.3171 19.58 9.3171 18.8204 8.84848 18.3517C8.37985 17.8831 7.62004 17.8831 7.15142 18.3517L5.55142 19.9517C5.0828 20.4204 5.0828 21.18 5.55142 21.6487L7.15142 23.2487C7.62004 23.7173 8.37985 23.7173 8.84848 23.2487C9.3171 22.78 9.3171 22.0204 8.84848 21.5517L8.097 20.8002L8.84848 20.0487Z" fill="white"/>
<path d="M16.0484 21.5517C15.5798 21.083 14.8201 21.083 14.3515 21.5517C13.8828 22.0203 13.8828 22.78 14.3515 23.2486L15.1028 24.0002L14.3515 24.7517C13.8828 25.2203 13.8828 25.98 14.3515 26.4486C14.8201 26.9173 15.5798 26.9173 16.0484 26.4486L17.6484 24.8486C18.1171 24.38 18.1171 23.6203 17.6484 23.1517L16.0484 21.5517Z" fill="white"/>
<path d="M15.2147 0.416061L15.2 4.9511C15.1998 6.70646 15.1996 8.25777 15.3678 9.5082C15.55 10.8636 15.9684 12.2188 17.0745 13.3249C18.1806 14.4308 19.5356 14.8492 20.8912 15.0314C22.1416 15.1996 23.6928 15.1994 25.4481 15.1993H31.9318C31.9516 15.4482 31.9657 15.7135 31.9756 15.9991H32C32 15.5711 32 15.3572 31.9841 15.1052C31.8936 13.674 31.2987 12.0339 30.4504 10.8775C30.3011 10.674 30.1988 10.5518 29.9947 10.3074C28.7267 8.78964 27.0576 6.89899 25.6 5.59915C24.3027 4.44222 22.5259 3.17648 20.9761 2.1415C19.6449 1.2523 18.9792 0.807693 18.0664 0.477245C17.8244 0.389645 17.5052 0.292877 17.2553 0.231357C16.6409 0.0801092 16.0428 0.0275013 15.2 0.00927734L15.2147 0.416061Z" fill="white"/>
</svg>
