<svg width="34" height="28" viewBox="0 0 34 28" fill="none" xmlns="http://www.w3.org/2000/svg">
<path fill-rule="evenodd" clip-rule="evenodd" d="M0 6.8C0 3.04446 3.04446 0 6.8 0H27.2C30.9555 0 34 3.04446 34 6.8V7.65C34 8.11944 33.6194 8.5 33.15 8.5H0.85C0.380562 8.5 0 8.11944 0 7.65V6.8ZM0.85 11.9C0.380562 11.9 0 12.2806 0 12.75V20.4C0 24.1555 3.04446 27.2 6.8 27.2H27.2C30.9555 27.2 34 24.1555 34 20.4V12.75C34 12.2806 33.6194 11.9 33.15 11.9H0.85ZM18.7 18.7C18.7 17.7611 19.4611 17 20.4 17H25.5C26.4389 17 27.2 17.7611 27.2 18.7C27.2 19.6389 26.4389 20.4 25.5 20.4H20.4C19.4611 20.4 18.7 19.6389 18.7 18.7Z" fill="white"/>
</svg>
