<svg width="34" height="33" viewBox="0 0 34 33" fill="none" xmlns="http://www.w3.org/2000/svg">
<path d="M27.8978 3.85173L33.0316 23.0114C33.7742 25.7827 32.1295 28.6313 29.3582 29.3739L17.4975 32.552C14.7261 33.2946 11.8775 31.6499 11.1349 28.8786L6.00109 9.71894C5.2585 6.94758 6.90315 4.09896 9.67451 3.35637L21.5352 0.178305C24.3066 -0.564279 27.1552 1.08037 27.8978 3.85173ZM15.7359 9.55518C15.4659 8.54741 14.43 7.94936 13.4222 8.21939C12.4145 8.48942 11.8164 9.52528 12.0864 10.533C12.3565 11.5408 13.3923 12.1389 14.4001 11.8688C15.4079 11.5988 16.0059 10.5629 15.7359 9.55518ZM5.98218 16.9544L9.31017 29.3675C9.65203 30.6434 10.3212 31.7441 11.2032 32.6036L10.3666 32.5586C7.50142 32.4084 5.30045 29.964 5.45061 27.0988L5.98218 16.9544ZM4.23553 14.162L3.5641 27C3.49493 28.3199 3.79165 29.5743 4.36557 30.6647L3.58273 30.3613C0.904174 29.3331 -0.433705 26.3282 0.594498 23.6497L4.23553 14.162Z" fill="white"/>
</svg>
