<svg width="34" height="30" viewBox="0 0 34 30" fill="none" xmlns="http://www.w3.org/2000/svg">
<path fill-rule="evenodd" clip-rule="evenodd" d="M31.866 19.1191H2.13404C0.953192 19.1191 0 20.8915 0 23.0745V25.7149C0 27.8979 0.953192 29.6702 2.13404 29.6702H31.866C33.0447 29.6702 34 27.8979 34 25.7149V23.0745C34 20.8915 33.0447 19.1191 31.866 19.1191ZM24.4255 27.766C22.5426 27.766 21.0128 26.2085 21.0128 24.2872C21.0128 22.3659 22.5426 20.8064 24.4255 20.8064C26.3085 20.8064 27.8383 22.3638 27.8383 24.2872C27.8383 26.2064 26.3085 27.766 24.4255 27.766Z" fill="white"/>
<path fill-rule="evenodd" clip-rule="evenodd" d="M22.8639 6.61702H18.8469V1.34681C18.8469 0.161702 17.9511 0 16.8511 0C15.7469 0 14.8554 0.161702 14.8554 1.34681V6.61702H11.049C10.4469 7.22553 10.4469 8.20851 11.049 8.81489L15.8682 14.2787C16.4682 14.883 17.4511 14.883 18.0533 14.2787L22.8639 8.81489C23.4703 8.20851 23.4703 7.22553 22.8639 6.61702Z" fill="white"/>
</svg>
