<svg width="32" height="32" viewBox="0 0 32 32" fill="none" xmlns="http://www.w3.org/2000/svg">
<path opacity="0.5" d="M18.6061 29.555L17.7388 31.0204C16.9657 32.3265 15.0345 32.3265 14.2613 31.0204L13.394 29.555C12.7212 28.4183 12.3848 27.8502 11.8445 27.5358C11.3042 27.2215 10.6239 27.2099 9.26336 27.1865C7.25478 27.1518 5.99505 27.0287 4.93855 26.5911C2.97831 25.7791 1.42092 24.2219 0.608962 22.2615C-4.76839e-08 20.7914 0 18.9276 0 15.2001V13.6001C0 8.36254 -9.53678e-08 5.74378 1.17888 3.82003C1.83853 2.74358 2.74358 1.83853 3.82003 1.17888C5.74378 -9.53678e-08 8.36254 0 13.6 0H18.4001C23.6375 0 26.2563 -9.53678e-08 28.1801 1.17888C29.2566 1.83853 30.1616 2.74358 30.8212 3.82003C32.0001 5.74378 32.0001 8.36254 32.0001 13.6001V15.2001C32.0001 18.9276 32.0001 20.7914 31.3912 22.2615C30.5792 24.2219 29.0219 25.7791 27.0615 26.5911C26.0051 27.0287 24.7454 27.1518 22.7367 27.1865C21.3761 27.2099 20.6959 27.2215 20.1556 27.5358C19.6153 27.85 19.2788 28.4183 18.6061 29.555Z" fill="white"/>
<path d="M24.0001 14.4001C24.0001 15.2837 23.2837 16.0001 22.4001 16.0001C21.5164 16.0001 20.8 15.2837 20.8 14.4001C20.8 13.5164 21.5164 12.8 22.4001 12.8C23.2837 12.8 24.0001 13.5164 24.0001 14.4001Z" fill="white"/>
<path d="M17.6002 14.4001C17.6002 15.2837 16.8838 16.0001 16.0002 16.0001C15.1165 16.0001 14.4001 15.2837 14.4001 14.4001C14.4001 13.5164 15.1165 12.8 16.0002 12.8C16.8838 12.8 17.6002 13.5164 17.6002 14.4001Z" fill="white"/>
<path d="M11.2 14.4001C11.2 15.2837 10.4837 16.0001 9.60001 16.0001C8.71635 16.0001 8 15.2837 8 14.4001C8 13.5164 8.71635 12.8 9.60001 12.8C10.4837 12.8 11.2 13.5164 11.2 14.4001Z" fill="white"/>
</svg>
