<svg width="26" height="36" viewBox="0 0 26 36" fill="none" xmlns="http://www.w3.org/2000/svg">
<path fill-rule="evenodd" clip-rule="evenodd" d="M9.16346 4.40488e-06C9.20407 4.40488e-06 9.24484 4.40488e-06 9.28571 4.40488e-06H16.8365C18.4828 -8.55951e-05 19.9013 -0.000157633 21.0373 0.147874C22.2547 0.306508 23.4217 0.66424 24.3681 1.58163C25.3147 2.49903 25.6837 3.63006 25.8475 4.80998C26.0002 5.91097 26.0002 7.28584 26 8.88151V27.1184C26.0002 28.7141 26.0002 30.089 25.8475 31.19C25.6837 32.3699 25.3147 33.501 24.3681 34.4183C23.4217 35.3358 22.2547 35.6934 21.0373 35.8522C19.9013 36.0002 18.4828 36.0002 16.8365 36H9.16351C7.51716 36.0002 6.09864 36.0002 4.96268 35.8522C3.7453 35.6934 2.57837 35.3358 1.63184 34.4183C0.685327 33.501 0.316239 32.3699 0.152569 31.19C-0.000162638 30.089 -8.83124e-05 28.7141 4.54472e-06 27.1184V9C4.54472e-06 8.96038 4.54472e-06 8.92087 4.54472e-06 8.88151C-8.83124e-05 7.28584 -0.000162638 5.91097 0.152569 4.80998C0.316239 3.63006 0.685327 2.49903 1.63184 1.58163C2.57837 0.66424 3.7453 0.306508 4.96268 0.147874C6.09862 -0.000157633 7.51714 -8.55951e-05 9.16346 4.40488e-06ZM10.2143 28.8C10.2143 27.8058 11.0457 27 12.0714 27H13.9286C14.9543 27 15.7857 27.8058 15.7857 28.8C15.7857 29.7941 14.9543 30.6 13.9286 30.6H12.0714C11.0457 30.6 10.2143 29.7941 10.2143 28.8Z" fill="white"/>
</svg>
