<svg width="34" height="34" viewBox="0 0 34 34" fill="none" xmlns="http://www.w3.org/2000/svg">
<path opacity="0.4" d="M25.6696 0H18.5296C12.6645 0 10.2846 2.329 10.2166 8.075H15.4696C22.6096 8.075 25.9246 11.39 25.9246 18.53V23.783C31.6706 23.715 33.9996 21.335 33.9996 15.47V8.33C33.9996 2.38 31.6196 0 25.6696 0Z" fill="white"/>
<path d="M15.47 10.2H8.33C2.38 10.2 0 12.58 0 18.53V25.67C0 31.62 2.38 34 8.33 34H15.47C21.42 34 23.8 31.62 23.8 25.67V18.53C23.8 12.58 21.42 10.2 15.47 10.2ZM17.493 19.8049L11.186 26.112C10.948 26.35 10.642 26.469 10.319 26.469C9.996 26.469 9.69 26.35 9.452 26.112L6.29 22.95C5.814 22.474 5.814 21.709 6.29 21.233C6.766 20.757 7.531 20.757 8.007 21.233L10.302 23.528L15.759 18.071C16.235 17.595 17 17.595 17.476 18.071C17.952 18.547 17.969 19.3289 17.493 19.8049Z" fill="white"/>
</svg>
