<svg width="143.000000" height="33.000000" viewBox="0 0 143 33" fill="none" xmlns="http://www.w3.org/2000/svg" xmlns:xlink="http://www.w3.org/1999/xlink">
	<desc>
			Created with Pixso.
	</desc>
	<defs>
		<clipPath id="clip18_239">
			<rect id="Лого" width="143.000000" height="33.000000" fill="white" fill-opacity="0"/>
		</clipPath>
	</defs>
	<rect id="Лого" width="143.000000" height="33.000000" fill="#FFFFFF" fill-opacity="0"/>
	<g clip-path="url(#clip18_239)">
		<path id="&lt;/" d="M17.58 33.57L20.22 33.57L30.29 7.32L27.67 7.32L17.58 33.57ZM13.77 25L3.38 20.8L13.77 16.52L13.77 13.27L0.19 19.54L0.19 21.97L13.77 28.26L13.77 25Z" fill="#FFFFFF" fill-opacity="1.000000" fill-rule="evenodd"/>
		<path id="&gt;" d="M127.46 16.9L138.43 21.2L127.46 25.55L127.46 28.74L141.63 22.45L141.63 20.03L127.46 13.75L127.46 16.9Z" fill="#FFFFFF" fill-opacity="1.000000" fill-rule="evenodd"/>
		<path id="Студия веб-разработки" d="M70.08 8.65Q69.83 8.5 69.51 8.5Q69.3 8.5 69.11 8.57Q68.85 8.67 68.63 8.92Q68.69 8.54 68.9 8.32Q69.1 8.09 69.5 8L69.84 7.92Q70.14 7.85 70.28 7.68Q70.42 7.51 70.42 7.2L70.04 7.2Q70.04 7.29 70.01 7.35Q69.98 7.41 69.92 7.45Q69.81 7.53 69.46 7.59Q69.11 7.66 68.86 7.85Q68.68 7.99 68.55 8.19Q68.24 8.68 68.24 9.52L68.24 9.74Q68.24 10.26 68.5 10.6Q68.53 10.65 68.57 10.69Q68.68 10.81 68.82 10.89Q69.08 11.04 69.42 11.04Q69.73 11.04 69.97 10.92Q70.01 10.9 70.05 10.88Q70.15 10.82 70.23 10.74Q70.37 10.61 70.46 10.42Q70.6 10.13 70.6 9.76L70.6 9.72Q70.6 9.25 70.38 8.94Q70.35 8.89 70.3 8.84Q70.2 8.72 70.08 8.65ZM94.81 8.65Q94.57 8.5 94.24 8.5Q94.03 8.5 93.84 8.57Q93.58 8.67 93.37 8.92Q93.43 8.54 93.63 8.32Q93.83 8.09 94.23 8L94.57 7.92Q94.87 7.85 95.01 7.68Q95.15 7.51 95.15 7.2L94.78 7.2Q94.78 7.29 94.74 7.35Q94.71 7.41 94.66 7.45Q94.54 7.53 94.2 7.59Q93.84 7.66 93.59 7.85Q93.41 7.99 93.28 8.19Q92.97 8.68 92.97 9.52L92.97 9.74Q92.97 10.26 93.23 10.6Q93.26 10.65 93.3 10.69Q93.41 10.81 93.55 10.89Q93.81 11.04 94.16 11.04Q94.46 11.04 94.71 10.92Q94.74 10.9 94.78 10.88Q94.88 10.82 94.96 10.74Q95.1 10.61 95.19 10.42Q95.34 10.13 95.34 9.76L95.34 9.72Q95.34 9.25 95.12 8.94Q95.08 8.89 95.04 8.84Q94.93 8.72 94.81 8.65ZM38.41 10.65Q38.67 10.35 38.73 9.87L38.26 9.87Q38.19 10.31 37.98 10.48Q37.77 10.66 37.38 10.66Q37.15 10.66 36.97 10.56Q36.82 10.47 36.71 10.32Q36.46 9.98 36.46 9.4L36.46 9.05Q36.46 8.44 36.72 8.11Q36.82 7.97 36.96 7.89Q37.16 7.78 37.42 7.78Q37.77 7.78 37.97 7.95Q37.98 7.96 37.99 7.97Q38.2 8.16 38.26 8.58L38.73 8.58Q38.68 8.11 38.43 7.81Q38.38 7.75 38.33 7.71Q38.28 7.66 38.22 7.62Q37.9 7.39 37.42 7.39Q37.06 7.39 36.77 7.54Q36.72 7.56 36.67 7.59Q36.59 7.64 36.52 7.7Q36.3 7.89 36.17 8.17Q35.99 8.55 35.99 9.04L35.99 9.38Q35.99 10.12 36.35 10.57Q36.36 10.58 36.37 10.59Q36.53 10.78 36.72 10.89Q37.01 11.04 37.38 11.04Q37.91 11.04 38.25 10.79Q38.28 10.76 38.31 10.74Q38.36 10.69 38.41 10.65ZM65.18 10.89Q65.44 11.04 65.79 11.04Q66.19 11.04 66.47 10.86Q66.66 10.74 66.79 10.53L66.51 10.32Q66.41 10.46 66.26 10.55Q66.24 10.57 66.22 10.58Q66.06 10.68 65.82 10.68Q65.63 10.68 65.48 10.6Q65.36 10.54 65.26 10.43Q65.23 10.4 65.21 10.36Q65.04 10.14 65.04 9.8L66.83 9.8L66.83 9.62Q66.83 8.98 66.54 8.64Q66.46 8.54 66.35 8.47Q66.1 8.3 65.74 8.3Q65.6 8.3 65.47 8.34Q65.31 8.38 65.15 8.48Q65.08 8.53 65.02 8.58Q64.84 8.74 64.73 8.96Q64.58 9.27 64.58 9.66L64.58 9.75Q64.58 10.24 64.81 10.56Q64.86 10.63 64.92 10.69Q65.04 10.81 65.18 10.89ZM76.45 10.68Q76.72 10.31 76.72 9.7L76.72 9.66Q76.72 9.02 76.44 8.66Q76.32 8.51 76.16 8.42Q75.96 8.3 75.69 8.3Q75.37 8.3 75.15 8.45Q75.02 8.53 74.93 8.65L74.9 8.35L74.49 8.35L74.49 12.01L74.94 12.01L74.94 10.74Q75.02 10.82 75.11 10.88Q75.35 11.04 75.7 11.04Q75.95 11.04 76.14 10.94Q76.32 10.85 76.45 10.68ZM79.86 10.72Q79.89 10.92 79.93 11L80.4 11L80.4 10.96Q80.31 10.74 80.31 10.38L80.31 9.16Q80.3 8.87 80.16 8.67Q80.11 8.6 80.04 8.53Q80.04 8.53 80.03 8.53Q79.78 8.3 79.32 8.3Q79.04 8.3 78.8 8.41L78.8 8.41Q78.56 8.52 78.42 8.7L78.41 8.7Q78.29 8.86 78.28 9.03Q78.27 9.06 78.27 9.09L78.73 9.09Q78.73 9.03 78.74 8.99Q78.78 8.88 78.89 8.79Q78.91 8.78 78.93 8.77Q79.08 8.67 79.3 8.67Q79.57 8.67 79.71 8.8Q79.71 8.81 79.71 8.81Q79.75 8.84 79.77 8.88Q79.86 9 79.86 9.19L79.86 9.39L79.42 9.39Q78.85 9.39 78.53 9.62Q78.4 9.72 78.32 9.85Q78.22 10.03 78.22 10.26Q78.22 10.44 78.29 10.59Q78.35 10.72 78.47 10.82Q78.52 10.87 78.58 10.9Q78.8 11.04 79.11 11.04Q79.3 11.04 79.47 10.98Q79.69 10.9 79.86 10.72ZM87.51 10.68Q87.79 10.31 87.79 9.7L87.79 9.66Q87.79 9.02 87.51 8.66Q87.39 8.51 87.23 8.42Q87.02 8.3 86.76 8.3Q86.44 8.3 86.21 8.45Q86.09 8.53 85.99 8.65L85.97 8.35L85.55 8.35L85.55 12.01L86.01 12.01L86.01 10.74Q86.08 10.82 86.17 10.88Q86.41 11.04 86.76 11.04Q87.01 11.04 87.21 10.94Q87.38 10.85 87.51 10.68ZM90.93 10.72Q90.95 10.92 90.99 11L91.46 11L91.46 10.96Q91.37 10.74 91.37 10.38L91.37 9.16Q91.36 8.87 91.23 8.67Q91.17 8.6 91.1 8.53Q91.1 8.53 91.1 8.53Q90.84 8.3 90.39 8.3Q90.1 8.3 89.86 8.41L89.86 8.41Q89.62 8.52 89.48 8.7L89.48 8.7Q89.36 8.86 89.34 9.03Q89.34 9.06 89.34 9.09L89.79 9.09Q89.79 9.03 89.81 8.99Q89.84 8.88 89.96 8.79Q89.97 8.78 89.99 8.77Q90.14 8.67 90.36 8.67Q90.63 8.67 90.77 8.8Q90.78 8.81 90.78 8.81Q90.81 8.84 90.83 8.88Q90.92 9 90.92 9.19L90.92 9.39L90.48 9.39Q89.91 9.39 89.6 9.62Q89.46 9.72 89.39 9.85Q89.28 10.03 89.28 10.26Q89.28 10.44 89.35 10.59Q89.42 10.72 89.53 10.82Q89.58 10.87 89.64 10.9Q89.86 11.04 90.18 11.04Q90.37 11.04 90.53 10.98Q90.75 10.9 90.93 10.72ZM96.88 8.95Q96.72 9.26 96.72 9.65L96.72 9.68Q96.72 10.22 96.98 10.58Q97.02 10.62 97.06 10.67Q97.19 10.82 97.35 10.91Q97.6 11.04 97.93 11.04Q98.22 11.04 98.45 10.93Q98.51 10.91 98.56 10.87Q98.65 10.81 98.73 10.74Q98.88 10.6 98.98 10.4Q99.13 10.09 99.13 9.7L99.13 9.67Q99.13 9.12 98.86 8.76Q98.83 8.72 98.8 8.68Q98.67 8.53 98.5 8.44Q98.25 8.3 97.92 8.3Q97.65 8.3 97.42 8.41Q97.36 8.44 97.3 8.47Q97.23 8.52 97.17 8.57Q96.99 8.72 96.88 8.95ZM83.43 8.9Q83.47 8.97 83.47 9.08Q83.47 9.22 83.4 9.31Q83.29 9.45 83.01 9.46L82.52 9.46L82.52 9.84L82.97 9.84Q83.25 9.84 83.38 9.93Q83.4 9.95 83.42 9.97Q83.51 10.07 83.51 10.25Q83.51 10.34 83.48 10.41Q83.44 10.5 83.36 10.56Q83.2 10.68 82.94 10.68Q82.73 10.68 82.57 10.59Q82.54 10.57 82.51 10.54Q82.39 10.45 82.36 10.33Q82.34 10.28 82.34 10.21L81.89 10.21Q81.89 10.42 81.97 10.57Q82.05 10.71 82.19 10.82Q82.19 10.83 82.2 10.83Q82.5 11.04 82.94 11.04Q83.41 11.04 83.69 10.83Q83.82 10.73 83.89 10.6Q83.97 10.45 83.97 10.25Q83.97 10.04 83.87 9.9Q83.76 9.72 83.51 9.64Q83.71 9.55 83.81 9.4Q83.87 9.31 83.9 9.22Q83.92 9.15 83.92 9.07Q83.92 8.83 83.81 8.66Q83.75 8.57 83.66 8.51Q83.4 8.31 82.94 8.31Q82.55 8.31 82.28 8.49Q82.25 8.51 82.22 8.53Q82.06 8.65 81.98 8.81Q81.93 8.94 81.93 9.09L82.38 9.09Q82.38 9.05 82.39 9Q82.42 8.89 82.54 8.8Q82.56 8.78 82.58 8.77Q82.73 8.67 82.94 8.67Q83.18 8.67 83.33 8.78Q83.39 8.83 83.43 8.9ZM41.38 8.72L42.26 8.72L42.26 8.35L40.05 8.35L40.05 8.72L40.92 8.72L40.92 11L41.38 11L41.38 8.72ZM45.21 8.35L44.59 10.33L43.93 8.35L43.44 8.35L44.38 10.97L44.28 11.23Q44.2 11.48 44.07 11.57Q43.94 11.67 43.71 11.67L43.59 11.66L43.59 12.02L43.76 12.05L43.85 12.06Q44.01 12.06 44.14 12Q44.46 11.86 44.63 11.4L45.69 8.35L45.21 8.35ZM47.09 10.43L46.93 10.63L46.73 10.63L46.73 11.77L47.18 11.77L47.18 11L49.02 11L49.02 11.77L49.47 11.77L49.47 10.63L49.13 10.63L49.13 8.35L47.43 8.35L47.39 9.41Q47.35 10.09 47.09 10.43ZM53.14 8.35L52.68 8.35L51.47 10.28L51.47 8.35L51.01 8.35L51.01 11L51.47 11L52.68 9.07L52.68 11L53.14 11L53.14 8.35ZM56.88 11L56.88 8.35L55.77 8.35Q55.31 8.36 55.04 8.58Q54.92 8.68 54.85 8.81Q54.77 8.96 54.77 9.16Q54.77 9.35 54.85 9.51Q54.87 9.56 54.91 9.61Q54.93 9.64 54.95 9.67Q55.08 9.82 55.3 9.9L54.63 11L55.12 11L55.74 9.97L56.43 9.97L56.43 11L56.88 11ZM60.88 8.35L60.88 11L62.08 11Q62.57 11 62.83 10.8Q62.94 10.73 63 10.63Q63.1 10.47 63.1 10.25Q63.1 10.12 63.05 10.01Q63.02 9.92 62.96 9.85Q62.93 9.82 62.9 9.8Q62.76 9.68 62.57 9.64Q62.79 9.56 62.9 9.41Q62.95 9.33 62.98 9.25Q63.01 9.17 63.01 9.08Q63.01 8.88 62.92 8.73Q62.85 8.62 62.72 8.54Q62.44 8.35 61.91 8.35L60.88 8.35ZM101.72 8.72L102.6 8.72L102.6 8.35L100.4 8.35L100.4 8.72L101.27 8.72L101.27 11L101.72 11L101.72 8.72ZM104.54 9.87L104.87 9.87L105.78 11L106.36 11L105.22 9.62L106.27 8.35L105.72 8.35L104.83 9.47L104.54 9.47L104.54 8.35L104.08 8.35L104.08 11L104.54 11L104.54 9.87ZM109.9 8.35L109.45 8.35L108.23 10.28L108.23 8.35L107.78 8.35L107.78 11L108.23 11L109.45 9.07L109.45 11L109.9 11L109.9 8.35ZM65.48 8.73Q65.6 8.68 65.74 8.68Q65.93 8.68 66.07 8.76Q66.13 8.8 66.19 8.86Q66.35 9.05 66.37 9.4L66.37 9.43L65.05 9.43Q65.09 9.07 65.28 8.87Q65.37 8.78 65.48 8.73ZM97.38 10.41Q97.18 10.14 97.18 9.7Q97.18 9.21 97.38 8.94Q97.49 8.81 97.62 8.74Q97.76 8.68 97.92 8.68Q98.1 8.68 98.23 8.75Q98.37 8.81 98.47 8.95Q98.68 9.22 98.68 9.65Q98.68 10.14 98.47 10.41Q98.38 10.53 98.25 10.6Q98.11 10.68 97.93 10.68Q97.75 10.68 97.61 10.6Q97.48 10.54 97.38 10.41ZM76.08 8.95Q76.27 9.21 76.27 9.65Q76.27 10.16 76.08 10.42Q75.99 10.54 75.86 10.61Q75.73 10.68 75.56 10.68Q75.35 10.68 75.19 10.58Q75.04 10.49 74.94 10.31L74.94 9.05Q75.05 8.86 75.21 8.77Q75.36 8.69 75.56 8.69Q75.74 8.69 75.87 8.76Q75.99 8.83 76.08 8.95ZM87.14 8.95Q87.33 9.21 87.33 9.65Q87.33 10.16 87.14 10.42Q87.05 10.54 86.93 10.61Q86.79 10.68 86.63 10.68Q86.41 10.68 86.26 10.58Q86.11 10.49 86.01 10.31L86.01 9.05Q86.11 8.86 86.27 8.77Q86.42 8.69 86.62 8.69Q86.8 8.69 86.94 8.76Q87.06 8.83 87.14 8.95ZM55.28 9.38Q55.23 9.28 55.23 9.16Q55.23 9.06 55.27 8.97Q55.31 8.9 55.38 8.84Q55.52 8.72 55.78 8.72L56.43 8.72L56.43 9.6L55.71 9.6Q55.52 9.59 55.39 9.5Q55.37 9.49 55.36 9.48Q55.31 9.43 55.28 9.38ZM61.92 9.47L61.34 9.47L61.34 8.72L61.95 8.72Q62.39 8.73 62.51 8.93Q62.55 9 62.55 9.1Q62.55 9.2 62.51 9.27Q62.39 9.47 61.92 9.47ZM48.68 10.63L47.47 10.63Q47.8 10.19 47.84 9.4L47.87 8.77L48.68 8.77L48.68 10.63ZM69.04 8.97Q69.2 8.88 69.42 8.88Q69.65 8.88 69.81 8.98Q69.89 9.03 69.96 9.1Q69.97 9.12 69.99 9.14Q70.15 9.36 70.15 9.7Q70.15 10.18 69.96 10.43Q69.87 10.53 69.77 10.59Q69.62 10.68 69.42 10.68Q69.23 10.68 69.09 10.6Q68.98 10.54 68.89 10.43Q68.7 10.18 68.7 9.76L68.7 9.72Q68.7 9.32 68.89 9.1Q68.96 9.02 69.04 8.97ZM93.77 8.97Q93.93 8.88 94.15 8.88Q94.38 8.88 94.55 8.98Q94.62 9.03 94.69 9.1Q94.7 9.12 94.72 9.14Q94.88 9.36 94.88 9.7Q94.88 10.18 94.69 10.43Q94.61 10.53 94.5 10.59Q94.35 10.68 94.16 10.68Q93.96 10.68 93.82 10.6Q93.71 10.54 93.63 10.43Q93.43 10.18 93.43 9.76L93.43 9.72Q93.43 9.32 93.62 9.1Q93.69 9.02 93.77 8.97ZM71.86 9.67L73.05 9.67L73.05 9.3L71.86 9.3L71.86 9.67ZM79.33 10.64Q79.26 10.65 79.18 10.65Q78.99 10.65 78.85 10.56Q78.83 10.55 78.81 10.53Q78.77 10.49 78.74 10.45Q78.67 10.35 78.67 10.2Q78.67 10.08 78.73 9.98Q78.88 9.71 79.5 9.71L79.86 9.71L79.86 10.26Q79.84 10.29 79.82 10.31Q79.74 10.45 79.58 10.54Q79.46 10.61 79.33 10.64ZM90.4 10.64Q90.32 10.65 90.24 10.65Q90.05 10.65 89.92 10.56Q89.9 10.55 89.88 10.53Q89.83 10.49 89.8 10.45Q89.74 10.35 89.74 10.2Q89.74 10.08 89.79 9.98Q89.95 9.71 90.57 9.71L90.92 9.71L90.92 10.26Q90.91 10.29 90.89 10.31Q90.8 10.45 90.64 10.54Q90.52 10.61 90.4 10.64ZM61.34 10.63L61.34 9.84L62.07 9.84Q62.46 9.84 62.59 10.02Q62.65 10.11 62.65 10.23Q62.65 10.35 62.6 10.43Q62.56 10.48 62.51 10.53Q62.37 10.63 62.08 10.63L61.34 10.63Z" fill="#FFFFFF" fill-opacity="1.000000" fill-rule="evenodd"/>
		<path id="Архиповой" d="M121.93 14.47Q122.24 13.88 122.24 13.13L120.21 13.13Q120.21 13.62 119.98 13.93Q119.92 14.01 119.85 14.07Q119.82 14.1 119.79 14.12Q119.44 14.41 118.85 14.41Q118.25 14.41 117.89 14.11Q117.86 14.09 117.84 14.07Q117.76 14 117.7 13.92Q117.47 13.61 117.47 13.13L115.45 13.13Q115.45 13.88 115.77 14.47Q115.99 14.89 116.39 15.23Q116.46 15.3 116.54 15.36Q117.44 16.03 118.85 16.03Q120.24 16.03 121.13 15.37Q121.22 15.3 121.31 15.23Q121.7 14.89 121.93 14.47ZM29.69 25.08L33.61 25.08L34.37 28L37.43 28L32.96 13.78L30.33 13.78L25.89 28L28.93 28L29.69 25.08ZM46.53 26.86Q47.39 25.53 47.39 23.04L47.39 22.23Q47.37 19.69 46.51 18.46Q46.21 18.02 45.79 17.73Q45.05 17.23 43.97 17.23Q43.33 17.23 42.82 17.49Q42.23 17.78 41.81 18.4L41.71 17.43L39.16 17.43L39.16 32.06L41.92 32.06L41.92 27.15Q42.32 27.68 42.86 27.94Q43.36 28.19 43.99 28.19Q44.96 28.19 45.65 27.75Q46.17 27.43 46.53 26.86ZM82.76 18.6Q81.62 19.97 81.62 22.37L81.62 23.04Q81.62 25.47 82.75 26.83Q83.1 27.25 83.55 27.55Q84.52 28.19 85.91 28.19Q87.3 28.19 88.26 27.55Q88.7 27.26 89.05 26.83Q90.18 25.48 90.18 23.06L90.18 22.39Q90.18 19.97 89.04 18.6Q88.68 18.16 88.22 17.86Q87.26 17.23 85.89 17.23Q84.56 17.23 83.62 17.83Q83.14 18.14 82.76 18.6ZM104.66 18.6Q103.53 19.97 103.53 22.37L103.53 23.04Q103.53 25.47 104.65 26.83Q105.01 27.25 105.45 27.55Q106.42 28.19 107.81 28.19Q109.2 28.19 110.16 27.55Q110.6 27.26 110.96 26.83Q112.08 25.48 112.08 23.06L112.08 22.39Q112.08 19.97 110.95 18.6Q110.58 18.16 110.12 17.86Q109.16 17.23 107.79 17.23Q106.47 17.23 105.52 17.83Q105.04 18.14 104.66 18.6ZM54.68 17.43L53.45 20.56L52.27 17.43L49.33 17.43L51.72 22.59L49.22 28L52.17 28L53.46 24.68L54.76 28L57.7 28L55.2 22.59L57.61 17.43L54.68 17.43ZM67.94 17.43L65.19 17.43L62.73 23.91L62.73 17.43L59.96 17.43L59.96 28L62.73 28L65.19 21.5L65.19 28L67.94 28L67.94 17.43ZM76.17 28L78.93 28L78.93 17.43L70.95 17.43L70.95 28L73.72 28L73.72 19.73L76.17 19.73L76.17 28ZM93.07 17.43L93.07 28L97.41 28Q99.74 28 100.64 26.86Q101.21 26.14 101.21 24.98Q101.21 24.3 100.92 23.79Q100.8 23.59 100.64 23.41Q100.6 23.37 100.57 23.34Q100.01 22.78 99.08 22.58Q99.89 22.27 100.31 21.69Q100.51 21.43 100.61 21.13Q100.74 20.78 100.74 20.38Q100.74 19.43 100.3 18.77Q100.08 18.45 99.75 18.19Q98.76 17.43 96.91 17.43L93.07 17.43ZM122.78 17.43L120.02 17.43L117.56 23.91L117.56 17.43L114.79 17.43L114.79 28L117.56 28L120.02 21.5L120.02 28L122.78 28L122.78 17.43ZM32.97 22.69L30.31 22.69L31.64 17.62L32.97 22.69ZM85.31 25.76Q84.4 25.27 84.4 23.06L84.4 22.37Q84.4 20.92 84.79 20.23Q85.04 19.79 85.41 19.62Q85.63 19.53 85.89 19.53Q86.19 19.53 86.43 19.64Q86.79 19.81 87.02 20.23Q87.42 20.92 87.42 22.37L87.41 23.53Q87.33 25.31 86.52 25.75Q86.26 25.9 85.91 25.9Q85.57 25.9 85.31 25.76ZM107.21 25.76Q106.3 25.27 106.3 23.06L106.3 22.37Q106.3 20.92 106.69 20.23Q106.94 19.79 107.31 19.62Q107.53 19.53 107.79 19.53Q108.09 19.53 108.33 19.64Q108.69 19.81 108.93 20.23Q109.33 20.92 109.33 22.37L109.32 23.53Q109.24 25.31 108.43 25.75Q108.16 25.9 107.81 25.9Q107.48 25.9 107.21 25.76ZM44.3 20.18Q44.63 20.82 44.63 22.35L44.63 23.04Q44.63 24.51 44.32 25.2Q44.18 25.51 43.94 25.68Q43.64 25.9 43.18 25.9Q42.62 25.9 42.27 25.63Q42.06 25.47 41.92 25.21L41.92 20.26Q42.1 19.93 42.37 19.76Q42.7 19.55 43.16 19.55Q43.64 19.55 43.96 19.78Q44.16 19.93 44.3 20.18ZM96.95 21.72L95.83 21.72L95.83 19.7L97.01 19.7Q97.45 19.72 97.69 19.95Q97.96 20.22 97.96 20.77Q97.96 21.24 97.74 21.48Q97.51 21.72 96.95 21.72ZM95.83 25.72L95.83 23.62L97.54 23.62Q97.95 23.63 98.19 23.84Q98.2 23.85 98.21 23.86Q98.44 24.1 98.44 24.68Q98.44 25.19 98.23 25.46L98.23 25.46Q98.01 25.72 97.48 25.72L95.83 25.72Z" fill="#D9FF02" fill-opacity="1.000000" fill-rule="evenodd"/>
	</g>
</svg>
